HIERARCHY
ROOT Hips
{
	OFFSET -0.001795 -0.223333 0.028219
	CHANNELS 6 Xposition Yposition Zposition Zrotation Yrotation Xrotation 
	JOINT LeftUpLeg
	{
		OFFSET 0.069520 -0.091406 -0.006815
		CHANNELS 3 Zrotation Yrotation Xrotation
		JOINT LeftLeg
		{
			OFFSET 0.034277 -0.375199 -0.004496
			CHANNELS 3 Zrotation Yrotation Xrotation
			JOINT LeftFoot
			{
				OFFSET -0.013596 -0.397961 -0.043693
				CHANNELS 3 Zrotation Yrotation Xrotation
				JOINT LeftToe
				{
					OFFSET 0.026358 -0.055791 0.119288
					CHANNELS 3 Zrotation Yrotation Xrotation
					End Site
					{
						OFFSET 0.000000 0.000000 0.000000
					}
				}
			}
		}
	}
	JOINT RightUpLeg
	{
		OFFSET -0.067670 -0.090522 -0.004320
		CHANNELS 3 Zrotation Yrotation Xrotation
		JOINT RightLeg
		{
			OFFSET -0.038290 -0.382569 -0.008850
			CHANNELS 3 Zrotation Yrotation Xrotation
			JOINT RightFoot
			{
				OFFSET 0.015774 -0.398415 -0.042312
				CHANNELS 3 Zrotation Yrotation Xrotation
				JOINT RightToe
				{
					OFFSET -0.025372 -0.048144 0.123348
					CHANNELS 3 Zrotation Yrotation Xrotation
					End Site
					{
						OFFSET 0.000000 0.000000 0.000000
					}
				}
			}
		}
	}
	JOINT Spine
	{
		OFFSET -0.002533 0.108963 -0.026696
		CHANNELS 3 Zrotation Yrotation Xrotation
		JOINT Spine1
		{
			OFFSET 0.005487 0.135180 0.001092
			CHANNELS 3 Zrotation Yrotation Xrotation
			JOINT Spine2
			{
				OFFSET 0.001457 0.052922 0.025425
				CHANNELS 3 Zrotation Yrotation Xrotation
				JOINT Neck
				{
					OFFSET -0.002778 0.213870 -0.042857
					CHANNELS 3 Zrotation Yrotation Xrotation
					JOINT Head
					{
						OFFSET 0.005152 0.064970 0.051349
						CHANNELS 3 Zrotation Yrotation Xrotation
						End Site
						{
							OFFSET 0.000000 0.000000 0.000000
						}
					}
				}
				JOINT LeftShoulder
				{
					OFFSET 0.078845 0.121749 -0.034090
					CHANNELS 3 Zrotation Yrotation Xrotation
					JOINT LeftArm
					{
						OFFSET 0.090977 0.030469 -0.008868
						CHANNELS 3 Zrotation Yrotation Xrotation
						JOINT LeftForeArm
						{
							OFFSET 0.259612 -0.012772 -0.027456
							CHANNELS 3 Zrotation Yrotation Xrotation
							JOINT LeftHand
							{
								OFFSET 0.249234 0.008986 -0.001171
								CHANNELS 3 Zrotation Yrotation Xrotation
								End Site
								{
									OFFSET 0.000000 0.000000 0.000000
								}
							}
						}
					}
				}
				JOINT RightShoulder
				{
					OFFSET -0.081759 0.118833 -0.038615
					CHANNELS 3 Zrotation Yrotation Xrotation
					JOINT RightArm
					{
						OFFSET -0.096012 0.032551 -0.009143
						CHANNELS 3 Zrotation Yrotation Xrotation
						JOINT RightForeArm
						{
							OFFSET -0.253742 -0.013329 -0.021401
							CHANNELS 3 Zrotation Yrotation Xrotation
							JOINT RightHand
							{
								OFFSET -0.255298 0.007772 -0.005559
								CHANNELS 3 Zrotation Yrotation Xrotation
								End Site
								{
									OFFSET 0.000000 0.000000 0.000000
								}
							}
						}
					}
				}
			}
		}
	}
}
MOTION
Frames: 17
Frame Time: 0.050000
0.000000 0.934716 0.000000 -0.589895 -5.796369 -3.391309 5.446291 0.263517 4.144078 -4.932725 0.878761 13.253722 8.943114 18.567640 11.565240 0.000000 0.000000 0.000000 -3.573724 -0.050803 2.427459 1.614508 0.124878 8.593305 -1.652614 -7.033418 6.694611 0.000000 0.000000 0.000000 6.451997 -0.348305 4.012734 -3.534482 1.437414 -13.367986 -3.155868 7.991337 19.225107 9.230529 -3.993439 -18.806245 0.000000 0.000000 0.000000 -5.382370 -28.454938 10.348592 -13.871572 -48.205822 0.939692 91.551839 -71.224204 -69.957731 0.000000 0.000000 0.000000 10.681237 18.854604 8.608662 22.305260 51.310989 5.200360 -86.207756 73.473269 -63.386624 0.000000 0.000000 0.000000 
-0.000113 0.935074 0.000138 -0.692725 -6.035082 -2.702713 6.130968 0.225202 3.788623 -5.981474 1.124187 12.631580 8.945460 18.555381 11.669564 0.000000 0.000000 0.000000 -3.603401 0.011110 1.564581 1.858028 0.092179 8.740354 -1.545548 -6.890942 6.865122 0.000000 0.000000 0.000000 6.945328 -0.266227 2.908104 -3.655552 1.502982 -11.252249 -3.212473 8.485720 17.827662 8.584903 -3.558462 -18.176753 0.000000 0.000000 0.000000 -4.077535 -27.807744 9.833799 -14.412382 -52.212341 1.374423 87.758994 -70.278810 -65.554881 0.000000 0.000000 0.000000 11.775010 18.750864 8.842288 23.210306 50.545568 5.487918 -92.499690 71.797486 -67.288921 0.000000 0.000000 0.000000 
-0.000056 0.935324 0.000339 -1.185694 -5.972154 -1.705950 6.452060 0.129484 2.102692 -5.677900 1.087596 13.742660 9.088229 18.755885 11.847513 0.000000 0.000000 0.000000 -3.715742 0.107028 0.200726 3.054346 -0.096310 9.310146 -1.491547 -6.950790 7.339959 0.000000 0.000000 0.000000 6.777749 -0.200652 2.043969 -3.494886 1.477521 -8.896500 -2.625691 7.657770 13.847553 7.457126 -3.261333 -15.446046 0.000000 0.000000 0.000000 -6.308705 -27.536581 10.149810 -16.792264 -52.511626 2.711269 84.349953 -70.193365 -62.163672 0.000000 0.000000 0.000000 9.891448 18.406884 8.201035 27.540197 49.917429 7.362603 -103.097343 73.400648 -79.253571 0.000000 0.000000 0.000000 
-0.000022 0.934889 0.000404 -1.056974 -6.715208 -2.174508 6.219679 0.189007 2.922287 -5.747643 1.123424 13.407443 9.407626 19.236325 11.969120 0.000000 0.000000 0.000000 -3.765504 0.104728 0.310180 2.716954 -0.008503 9.848277 -1.250562 -6.379822 6.999382 0.000000 0.000000 0.000000 6.713738 -0.257951 2.773008 -3.336537 1.411725 -8.265588 -3.035714 8.115937 12.941229 7.409116 -3.202861 -15.353953 0.000000 0.000000 0.000000 -7.754547 -27.176930 10.185418 -16.875877 -52.368906 2.804169 88.386242 -72.267843 -67.924966 0.000000 0.000000 0.000000 11.369771 18.672455 8.592480 27.101691 49.896593 7.201380 -108.919183 73.859979 -85.674314 0.000000 0.000000 0.000000 
-0.000012 0.934190 0.000561 -1.015696 -6.988674 -2.658757 5.829807 0.228133 3.369916 -5.246120 1.016360 13.664558 9.603946 19.545634 11.903541 0.000000 0.000000 0.000000 -3.984755 0.108027 0.362154 2.952518 -0.020878 10.653996 -1.176067 -6.147603 6.759842 0.000000 0.000000 0.000000 6.542831 -0.300964 3.379271 -3.274840 1.380805 -8.375664 -2.872446 7.829692 13.124441 7.147222 -2.898752 -16.501468 0.000000 0.000000 0.000000 -8.061576 -26.009892 9.801546 -19.647727 -52.448761 3.943459 94.414949 -73.463153 -74.637818 0.000000 0.000000 0.000000 10.303388 18.213114 8.101410 29.067487 49.505114 7.879426 -116.754414 74.348254 -94.491275 0.000000 0.000000 0.000000 
-0.000082 0.933420 0.000982 -0.721543 -8.006008 -2.667044 5.580724 0.270558 3.748821 -5.710597 1.162809 13.263283 10.061214 20.222348 12.128456 0.000000 0.000000 0.000000 -3.743705 0.125529 0.076954 1.760732 0.230590 10.937298 -0.957606 -5.483647 6.096360 0.000000 0.000000 0.000000 6.162525 -0.316751 3.679513 -2.804927 1.176672 -7.906548 -3.249516 8.577733 12.311944 7.609616 -2.882882 -18.070035 0.000000 0.000000 0.000000 -8.984225 -24.853872 9.378909 -21.765568 -52.404094 4.828808 99.846841 -75.247466 -81.870832 0.000000 0.000000 0.000000 10.849074 17.509115 7.895591 30.910537 49.029933 8.512419 -127.496801 75.387744 -107.190629 0.000000 0.000000 0.000000 
-0.000226 0.933461 0.001370 -0.683404 -8.285644 -2.310216 5.512371 0.255420 3.454270 -5.781917 1.190161 13.186623 10.220181 20.444958 12.300590 0.000000 0.000000 0.000000 -3.516116 0.167767 -0.656476 1.272665 0.355738 11.508953 -0.919460 -5.406869 6.056129 0.000000 0.000000 0.000000 5.789444 -0.323331 3.786583 -2.405243 1.009662 -7.770979 -3.225930 8.539037 11.457888 7.792827 -2.902854 -18.631898 0.000000 0.000000 0.000000 -10.138500 -23.692258 9.023148 -24.418272 -51.782268 5.866862 112.253325 -78.278626 -97.625840 0.000000 0.000000 0.000000 10.763720 17.329144 7.758993 33.158279 48.277948 9.217418 -135.899369 76.711368 -118.082395 0.000000 0.000000 0.000000 
-0.000262 0.933996 0.001565 -0.585713 -8.370703 -1.887180 5.184820 0.227596 2.972451 -5.487778 1.120594 13.205179 10.322938 20.572934 12.585618 0.000000 0.000000 0.000000 -3.352775 0.210883 -1.342917 0.812990 0.465644 11.865830 -0.914100 -5.473326 6.208260 0.000000 0.000000 0.000000 5.646538 -0.306813 3.547168 -2.347841 0.997943 -6.650305 -3.341398 8.381221 10.193206 7.747110 -2.902959 -18.330729 0.000000 0.000000 0.000000 -10.475958 -23.169077 8.821637 -25.588603 -51.328871 6.344391 122.535720 -79.487942 -109.795147 0.000000 0.000000 0.000000 10.805219 17.218086 7.687768 34.476570 47.268360 9.478288 -145.285394 77.328689 -129.623338 0.000000 0.000000 0.000000 
-0.000238 0.934233 0.001564 -0.678324 -8.485773 -1.840296 5.202752 0.227309 2.952967 -5.395855 1.101048 13.196837 10.389910 20.665106 12.687232 0.000000 0.000000 0.000000 -3.498991 0.203801 -1.152500 1.203253 0.367874 11.417814 -0.799664 -5.288505 6.319871 0.000000 0.000000 0.000000 5.836245 -0.315190 3.583042 -2.615173 1.107366 -6.657783 -2.999753 8.347496 10.495521 7.470477 -2.727186 -18.513296 0.000000 0.000000 0.000000 -10.417355 -23.167635 8.849692 -25.814727 -51.311278 6.418068 124.276794 -80.023927 -112.104778 0.000000 0.000000 0.000000 10.911475 17.142198 7.643102 35.403733 46.872878 9.666201 -150.177674 77.908242 -135.878239 0.000000 0.000000 0.000000 
-0.000252 0.934708 0.001455 -0.688512 -8.547105 -2.401195 5.224532 0.260517 3.382817 -5.380606 1.111467 13.504833 10.356261 20.602361 12.943721 0.000000 0.000000 0.000000 -3.299575 0.152850 -0.518218 0.845320 0.433177 11.353441 -0.729992 -5.201042 6.440558 0.000000 0.000000 0.000000 6.076228 -0.343810 3.973330 -2.887739 1.215310 -6.999775 -2.664063 8.390566 11.639683 7.346361 -2.579006 -19.204324 0.000000 0.000000 0.000000 -10.475089 -23.466719 9.022839 -24.637953 -51.304864 5.883394 123.002573 -80.041095 -110.690149 0.000000 0.000000 0.000000 11.041736 17.178611 7.670118 35.459925 46.654679 9.519995 -152.453153 78.389148 -138.882658 0.000000 0.000000 0.000000 
-0.000258 0.935244 0.001369 -0.666506 -8.724212 -2.608733 5.146364 0.274107 3.502593 -5.331187 1.113741 13.692444 10.414843 20.665639 13.269067 0.000000 0.000000 0.000000 -3.081004 0.132177 -0.319903 0.381093 0.523274 11.334398 -0.637470 -5.078145 6.564372 0.000000 0.000000 0.000000 6.285640 -0.370664 4.271700 -2.971456 1.244504 -7.197495 -2.811409 8.658549 12.059852 7.645936 -2.704072 -19.494054 0.000000 0.000000 0.000000 -10.045891 -24.091720 9.228467 -23.244802 -51.127505 5.261527 123.069538 -79.921360 -110.735776 0.000000 0.000000 0.000000 11.223843 17.027461 7.658702 35.385631 46.503227 9.409352 -153.742149 78.201249 -140.171386 0.000000 0.000000 0.000000 
-0.000277 0.935741 0.001326 -0.604790 -8.966069 -2.855789 5.095504 0.301421 3.831547 -5.414723 1.141310 13.604113 10.474710 20.734506 13.553986 0.000000 0.000000 0.000000 -3.072652 0.102064 0.136563 0.177982 0.539022 10.909725 -0.490768 -4.827006 6.645008 0.000000 0.000000 0.000000 6.678095 -0.422421 4.789132 -3.201257 1.312564 -8.306411 -3.084526 9.182559 12.907119 8.347014 -3.032976 -19.965069 0.000000 0.000000 0.000000 -9.684987 -24.810216 9.452746 -21.843959 -50.618454 4.548077 125.344834 -79.952961 -113.381286 0.000000 0.000000 0.000000 11.386936 16.503891 7.509068 35.633324 46.502734 9.436322 -154.719426 78.264507 -141.103855 0.000000 0.000000 0.000000 
-0.000258 0.936184 0.001436 -0.551112 -8.795601 -2.796148 4.849139 0.300298 3.820475 -5.065004 1.037370 13.456193 10.418906 20.651328 13.605363 0.000000 0.000000 0.000000 -3.116039 0.082009 0.461731 0.165191 0.498583 10.250609 -0.509313 -4.911604 6.772537 0.000000 0.000000 0.000000 6.905842 -0.427898 4.750915 -3.303207 1.337897 -9.279054 -3.142348 9.375868 13.738554 8.444048 -3.047639 -20.182842 0.000000 0.000000 0.000000 -9.498074 -25.325117 9.631677 -20.872576 -50.180112 4.041655 127.562276 -79.814977 -115.739094 0.000000 0.000000 0.000000 11.861571 16.449022 7.613242 35.041938 46.103661 9.001176 -154.513132 78.274927 -140.692025 0.000000 0.000000 0.000000 
-0.000266 0.936360 0.001463 -0.548640 -8.455477 -2.616914 4.646165 0.278791 3.549823 -4.642289 0.916967 13.507198 10.316088 20.509495 13.524571 0.000000 0.000000 0.000000 -3.002548 0.069302 0.563100 0.030021 0.492152 9.815149 -0.639396 -5.189146 6.845903 0.000000 0.000000 0.000000 7.009531 -0.365138 4.007534 -3.472176 1.427617 -8.512869 -3.027779 9.172840 13.304968 8.115763 -2.941844 -19.518286 0.000000 0.000000 0.000000 -8.919641 -25.697519 9.708756 -20.668938 -50.072395 3.973120 127.446531 -79.719059 -115.561532 0.000000 0.000000 0.000000 11.336742 16.708406 7.656108 35.178003 45.633188 8.947090 -152.543020 77.809699 -138.012614 0.000000 0.000000 0.000000 
-0.000280 0.936430 0.001475 -0.516542 -8.161555 -2.694808 4.682436 0.274083 3.537204 -4.650596 0.910812 13.598559 10.155859 20.281807 13.441706 0.000000 0.000000 0.000000 -3.080991 0.050423 0.865977 0.158502 0.447639 9.500246 -0.733031 -5.381238 6.892600 0.000000 0.000000 0.000000 7.119704 -0.337213 3.700690 -3.504412 1.445590 -8.569324 -3.018575 9.183050 13.779523 8.140511 -2.929307 -19.641318 0.000000 0.000000 0.000000 -8.602442 -26.248818 9.884987 -20.104041 -50.179628 3.734917 123.017883 -79.549603 -110.628256 0.000000 0.000000 0.000000 11.146218 16.854818 7.728529 35.332677 45.362377 8.887103 -150.925542 77.575634 -135.769933 0.000000 0.000000 0.000000 
-0.000297 0.936778 0.001499 -0.609771 -7.730974 -2.498054 4.619711 0.242096 3.152384 -4.251972 0.798597 13.810581 10.002117 20.060123 13.386183 0.000000 0.000000 0.000000 -2.988482 0.053638 0.723985 0.279893 0.421536 9.499193 -0.875634 -5.743104 7.124172 0.000000 0.000000 0.000000 7.327267 -0.316376 3.376585 -3.552629 1.454025 -9.470866 -2.915656 9.295586 14.764488 8.356303 -2.951859 -20.236428 0.000000 0.000000 0.000000 -8.703084 -26.978445 10.184078 -19.206060 -49.753723 3.274354 124.902015 -80.078274 -113.235539 0.000000 0.000000 0.000000 11.687929 16.824060 7.873388 34.794941 44.851024 8.429572 -153.284828 77.907503 -138.616566 0.000000 0.000000 0.000000 
-0.000319 0.936664 0.001523 -0.657378 -7.448070 -2.422873 4.608052 0.221076 2.887138 -4.057818 0.745625 14.079820 9.905832 19.925850 13.273277 0.000000 0.000000 0.000000 -3.091392 0.070527 0.507417 0.627235 0.374182 9.824339 -0.988863 -5.976918 7.178539 0.000000 0.000000 0.000000 7.382589 -0.292761 3.100925 -3.529066 1.448719 -9.566510 -2.980196 9.371650 14.903307 8.632188 -3.106945 -20.170571 0.000000 0.000000 0.000000 -8.314125 -27.240543 10.204092 -18.897425 -49.674624 3.120431 127.263492 -80.495340 -116.281989 0.000000 0.000000 0.000000 11.780028 16.635446 7.849590 34.437384 44.616249 8.212256 -154.643398 78.450978 -140.486831 0.000000 0.000000 0.000000 
